# Made in Blockbench 4.9.4
mtllib nuke.mtl

o cube
v 2 0.875 2
v 2 0.875 -2
v 2 0 2
v 2 0 -2
v -2 0.875 -2
v -2 0.875 2
v -2 0 -2
v -2 0 2
vt 0.125 0.875
vt 0.25 0.875
vt 0.25 0.84765625
vt 0.125 0.84765625
vt 0 0.875
vt 0.125 0.875
vt 0.125 0.84765625
vt 0 0.84765625
vt 0.375 0.875
vt 0.5 0.875
vt 0.5 0.84765625
vt 0.375 0.84765625
vt 0.25 0.875
vt 0.375 0.875
vt 0.375 0.84765625
vt 0.25 0.84765625
vt 0.25 0.875
vt 0.125 0.875
vt 0.125 1
vt 0.25 1
vt 0.375 1
vt 0.25 1
vt 0.25 0.875
vt 0.375 0.875
vn 0 0 -1
vn 1 0 0
vn 0 0 1
vn -1 0 0
vn 0 1 0
vn 0 -1 0
usemtl m_aeb4701a-4af1-91bc-4593-8a4c2c00b54b
f 4/4/1 7/3/1 5/2/1 2/1/1
f 3/8/2 4/7/2 2/6/2 1/5/2
f 8/12/3 3/11/3 1/10/3 6/9/3
f 7/16/4 8/15/4 6/14/4 5/13/4
f 6/20/5 1/19/5 2/18/5 5/17/5
f 7/24/6 4/23/6 3/22/6 8/21/6
o cube
v 2.651650429449553 1.6875 -2.6516504294495533
v 2.651650429449553 1.6875 -2.6516504294495533
v 2.651650429449553 0 -2.6516504294495533
v 2.651650429449553 0 -2.6516504294495533
v -2.651650429449553 1.6875 2.6516504294495533
v -2.651650429449553 1.6875 2.6516504294495533
v -2.651650429449553 0 2.6516504294495533
v -2.651650429449553 0 2.6516504294495533
vt 0.375 1
vt 0.375 1
vt 0.375 0.947265625
vt 0.375 0.947265625
vt 0.609375 1
vt 0.84375 1
vt 0.84375 0.947265625
vt 0.609375 0.947265625
vt 0.609375 1
vt 0.609375 1
vt 0.609375 0.947265625
vt 0.609375 0.947265625
vt 0.609375 1
vt 0.375 1
vt 0.375 1
vt 0.609375 1
vt 0.84375 1
vt 0.609375 1
vt 0.609375 1
vt 0.84375 1
vn 0.7071067811865475 0 -0.7071067811865476
vn 0.7071067811865476 0 0.7071067811865475
vn -0.7071067811865475 0 0.7071067811865476
vn 0 1 0
vn 0 -1 0
usemtl m_aeb4701a-4af1-91bc-4593-8a4c2c00b54b
f 11/28/7 12/27/7 10/26/7 9/25/7
f 16/32/8 11/31/8 9/30/8 14/29/8
f 15/36/9 16/35/9 14/34/9 13/33/9
f 14/40/10 9/39/10 10/38/10 13/37/10
f 15/44/11 12/43/11 11/42/11 16/41/11
o cube
v -2.651650429449553 1.6875 -2.6516504294495538
v -2.651650429449553 1.6875 -2.6516504294495538
v -2.651650429449553 0 -2.6516504294495538
v -2.651650429449553 0 -2.6516504294495538
v 2.651650429449553 1.6875 2.6516504294495538
v 2.651650429449553 1.6875 2.6516504294495538
v 2.651650429449553 0 2.6516504294495538
v 2.651650429449553 0 2.6516504294495538
vt 0.375 1
vt 0.375 1
vt 0.375 0.947265625
vt 0.375 0.947265625
vt 0.609375 1
vt 0.84375 1
vt 0.84375 0.947265625
vt 0.609375 0.947265625
vt 0.609375 1
vt 0.609375 1
vt 0.609375 0.947265625
vt 0.609375 0.947265625
vt 0.609375 1
vt 0.375 1
vt 0.375 1
vt 0.609375 1
vt 0.84375 1
vt 0.609375 1
vt 0.609375 1
vt 0.84375 1
vn -0.7071067811865475 0 -0.7071067811865477
vn 0.7071067811865477 0 -0.7071067811865475
vn 0.7071067811865475 0 0.7071067811865477
vn 0 1 0
vn 0 -1 0
usemtl m_aeb4701a-4af1-91bc-4593-8a4c2c00b54b
f 19/48/12 20/47/12 18/46/12 17/45/12
f 24/52/13 19/51/13 17/50/13 22/49/13
f 23/56/14 24/55/14 22/54/14 21/53/14
f 22/60/15 17/59/15 18/58/15 21/57/15
f 23/64/16 20/63/16 19/62/16 24/61/16
o cube
v 0.5 1 0.5
v 0.5 1 -0.5
v 0.5 0 0.5
v 0.5 0 -0.5
v -0.5 1 -0.5
v -0.5 1 0.5
v -0.5 0 -0.5
v -0.5 0 0.5
vt 0.40625 0.916015625
vt 0.4375 0.916015625
vt 0.4375 0.884765625
vt 0.40625 0.884765625
vt 0.375 0.916015625
vt 0.40625 0.916015625
vt 0.40625 0.884765625
vt 0.375 0.884765625
vt 0.46875 0.916015625
vt 0.5 0.916015625
vt 0.5 0.884765625
vt 0.46875 0.884765625
vt 0.4375 0.916015625
vt 0.46875 0.916015625
vt 0.46875 0.884765625
vt 0.4375 0.884765625
vt 0.4375 0.916015625
vt 0.40625 0.916015625
vt 0.40625 0.947265625
vt 0.4375 0.947265625
vt 0.46875 0.947265625
vt 0.4375 0.947265625
vt 0.4375 0.916015625
vt 0.46875 0.916015625
vn 0 0 -1
vn 1 0 0
vn 0 0 1
vn -1 0 0
vn 0 1 0
vn 0 -1 0
usemtl m_aeb4701a-4af1-91bc-4593-8a4c2c00b54b
f 28/68/17 31/67/17 29/66/17 26/65/17
f 27/72/18 28/71/18 26/70/18 25/69/18
f 32/76/19 27/75/19 25/74/19 30/73/19
f 31/80/20 32/79/20 30/78/20 29/77/20
f 30/84/21 25/83/21 26/82/21 29/81/21
f 31/88/22 28/87/22 27/86/22 32/85/22
o cube
v -0.44194173824159216 3.875 -0.44194173824159233
v -0.44194173824159216 3.875 -0.44194173824159233
v -0.44194173824159216 0 -0.44194173824159233
v -0.44194173824159216 0 -0.44194173824159233
v 0.4419417382415922 3.875 0.44194173824159233
v 0.4419417382415922 3.875 0.44194173824159233
v 0.4419417382415922 0 0.44194173824159233
v 0.4419417382415922 0 0.44194173824159233
vt 0.375 0.55078125
vt 0.375 0.55078125
vt 0.375 0.4296875
vt 0.375 0.4296875
vt 0.4140625 0.55078125
vt 0.453125 0.55078125
vt 0.453125 0.4296875
vt 0.4140625 0.4296875
vt 0.4140625 0.55078125
vt 0.4140625 0.55078125
vt 0.4140625 0.4296875
vt 0.4140625 0.4296875
vt 0.4140625 0.55078125
vt 0.375 0.55078125
vt 0.375 0.55078125
vt 0.4140625 0.55078125
vt 0.453125 0.55078125
vt 0.4140625 0.55078125
vt 0.4140625 0.55078125
vt 0.453125 0.55078125
vn -0.7071067811865475 0 -0.7071067811865477
vn 0.7071067811865477 0 -0.7071067811865475
vn 0.7071067811865475 0 0.7071067811865477
vn 0 1 0
vn 0 -1 0
usemtl m_aeb4701a-4af1-91bc-4593-8a4c2c00b54b
f 35/92/23 36/91/23 34/90/23 33/89/23
f 40/96/24 35/95/24 33/94/24 38/93/24
f 39/100/25 40/99/25 38/98/25 37/97/25
f 38/104/26 33/103/26 34/102/26 37/101/26
f 39/108/27 36/107/27 35/106/27 40/105/27
o cube
v -0.4222438797597876 3.875 0.46079833550632743
v -0.4222438797597876 3.875 0.46079833550632743
v -0.4222438797597876 0 0.46079833550632743
v -0.4222438797597876 0 0.46079833550632743
v 0.4222438797597876 3.875 -0.4607983355063275
v 0.4222438797597876 3.875 -0.4607983355063275
v 0.4222438797597876 0 -0.4607983355063275
v 0.4222438797597876 0 -0.4607983355063275
vt 0.4140625 0.55078125
vt 0.453125 0.55078125
vt 0.453125 0.4296875
vt 0.4140625 0.4296875
vt 0.4140625 0.55078125
vt 0.4140625 0.55078125
vt 0.4140625 0.4296875
vt 0.4140625 0.4296875
vt 0.453125 0.55078125
vt 0.453125 0.55078125
vt 0.453125 0.4296875
vt 0.453125 0.4296875
vt 0.453125 0.55078125
vt 0.4140625 0.55078125
vt 0.4140625 0.55078125
vt 0.453125 0.55078125
vt 0.4921875 0.55078125
vt 0.453125 0.55078125
vt 0.453125 0.55078125
vt 0.4921875 0.55078125
vn 0.7372773368101241 0 0.6755902076156602
vn -0.6755902076156602 0 0.7372773368101241
vn 0.6755902076156602 0 -0.7372773368101241
vn 0 1 0
vn 0 -1 0
usemtl m_aeb4701a-4af1-91bc-4593-8a4c2c00b54b
f 44/112/28 47/111/28 45/110/28 42/109/28
f 43/116/29 44/115/29 42/114/29 41/113/29
f 47/120/30 48/119/30 46/118/30 45/117/30
f 46/124/31 41/123/31 42/122/31 45/121/31
f 47/128/32 44/127/32 43/126/32 48/125/32
o cube
v 0.75 4.25 0.75
v 0.75 4.25 -0.75
v 0.75 2.375 0.75
v 0.75 2.375 -0.75
v -0.75 4.25 -0.75
v -0.75 4.25 0.75
v -0.75 2.375 -0.75
v -0.75 2.375 0.75
vt 0.4609375 0.609375
vt 0.5078125 0.609375
vt 0.5078125 0.55078125
vt 0.4609375 0.55078125
vt 0.4140625 0.609375
vt 0.4609375 0.609375
vt 0.4609375 0.55078125
vt 0.4140625 0.55078125
vt 0.5546875 0.609375
vt 0.6015625 0.609375
vt 0.6015625 0.55078125
vt 0.5546875 0.55078125
vt 0.5078125 0.609375
vt 0.5546875 0.609375
vt 0.5546875 0.55078125
vt 0.5078125 0.55078125
vt 0.5078125 0.609375
vt 0.4609375 0.609375
vt 0.4609375 0.65625
vt 0.5078125 0.65625
vt 0.5546875 0.65625
vt 0.5078125 0.65625
vt 0.5078125 0.609375
vt 0.5546875 0.609375
vn 0 0 -1
vn 1 0 0
vn 0 0 1
vn -1 0 0
vn 0 1 0
vn 0 -1 0
usemtl m_aeb4701a-4af1-91bc-4593-8a4c2c00b54b
f 52/132/33 55/131/33 53/130/33 50/129/33
f 51/136/34 52/135/34 50/134/34 49/133/34
f 56/140/35 51/139/35 49/138/35 54/137/35
f 55/144/36 56/143/36 54/142/36 53/141/36
f 54/148/37 49/147/37 50/146/37 53/145/37
f 55/152/38 52/151/38 51/150/38 56/149/38
o cube
v 1.5625 5.3125 1.5625
v 1.5625 5.3125 -1.5625
v 1.5625 4.125 1.5625
v 1.5625 4.125 -1.5625
v -1.5625 5.3125 -1.5625
v -1.5625 5.3125 1.5625
v -1.5625 4.125 -1.5625
v -1.5625 4.125 1.5625
vt 0.5 0.84765625
vt 0.59765625 0.84765625
vt 0.59765625 0.810546875
vt 0.5 0.810546875
vt 0.40234375 0.84765625
vt 0.5 0.84765625
vt 0.5 0.810546875
vt 0.40234375 0.810546875
vt 0.6953125 0.84765625
vt 0.79296875 0.84765625
vt 0.79296875 0.810546875
vt 0.6953125 0.810546875
vt 0.59765625 0.84765625
vt 0.6953125 0.84765625
vt 0.6953125 0.810546875
vt 0.59765625 0.810546875
vt 0.59765625 0.84765625
vt 0.5 0.84765625
vt 0.5 0.9453125
vt 0.59765625 0.9453125
vt 0.6953125 0.9453125
vt 0.59765625 0.9453125
vt 0.59765625 0.84765625
vt 0.6953125 0.84765625
vn 0 0 -1
vn 1 0 0
vn 0 0 1
vn -1 0 0
vn 0 1 0
vn 0 -1 0
usemtl m_aeb4701a-4af1-91bc-4593-8a4c2c00b54b
f 60/156/39 63/155/39 61/154/39 58/153/39
f 59/160/40 60/159/40 58/158/40 57/157/40
f 64/164/41 59/163/41 57/162/41 62/161/41
f 63/168/42 64/167/42 62/166/42 61/165/42
f 62/172/43 57/171/43 58/170/43 61/169/43
f 63/176/44 60/175/44 59/174/44 64/173/44
o cube
v 1.25 6.0625 1.25
v 1.25 6.0625 -1.25
v 1.25 5.3125 1.25
v 1.25 5.3125 -1.25
v -1.25 6.0625 -1.25
v -1.25 6.0625 1.25
v -1.25 5.3125 -1.25
v -1.25 5.3125 1.25
vt 0.4921875 0.6796875
vt 0.5703125 0.6796875
vt 0.5703125 0.65625
vt 0.4921875 0.65625
vt 0.4140625 0.6796875
vt 0.4921875 0.6796875
vt 0.4921875 0.65625
vt 0.4140625 0.65625
vt 0.6484375 0.6796875
vt 0.7265625 0.6796875
vt 0.7265625 0.65625
vt 0.6484375 0.65625
vt 0.5703125 0.6796875
vt 0.6484375 0.6796875
vt 0.6484375 0.65625
vt 0.5703125 0.65625
vt 0.5703125 0.6796875
vt 0.4921875 0.6796875
vt 0.4921875 0.7578125
vt 0.5703125 0.7578125
vt 0.6484375 0.7578125
vt 0.5703125 0.7578125
vt 0.5703125 0.6796875
vt 0.6484375 0.6796875
vn 0 0 -1
vn 1 0 0
vn 0 0 1
vn -1 0 0
vn 0 1 0
vn 0 -1 0
usemtl m_aeb4701a-4af1-91bc-4593-8a4c2c00b54b
f 68/180/45 71/179/45 69/178/45 66/177/45
f 67/184/46 68/183/46 66/182/46 65/181/46
f 72/188/47 67/187/47 65/186/47 70/185/47
f 71/192/48 72/191/48 70/190/48 69/189/48
f 70/196/49 65/195/49 66/194/49 69/193/49
f 71/200/50 68/199/50 67/198/50 72/197/50
o cube
v 2.2539028650321202 7.4375 2.2539028650321202
v -2.165514517383802 7.4375 -2.1655145173838015
v 2.2539028650321202 2 2.2539028650321202
v -2.165514517383802 2 -2.1655145173838015
v -2.165514517383802 7.4375 -2.1655145173838015
v 2.2539028650321202 7.4375 2.2539028650321202
v -2.165514517383802 2 -2.1655145173838015
v 2.2539028650321202 2 2.2539028650321202
vt 0.20703125 0.623046875
vt 0.20703125 0.623046875
vt 0.20703125 0.453125
vt 0.20703125 0.453125
vt 0.40234375 0.623046875
vt 0.40234375 0.623046875
vt 0.40234375 0.453125
vt 0.40234375 0.453125
vt 0.20703125 0.623046875
vt 0.40234375 0.623046875
vt 0.40234375 0.453125
vt 0.20703125 0.453125
vt 0.20703125 0.623046875
vt 0.20703125 0.623046875
vt 0.20703125 0.818359375
vt 0.20703125 0.818359375
vt 0.20703125 0.818359375
vt 0.20703125 0.818359375
vt 0.20703125 0.623046875
vt 0.20703125 0.623046875
vn -0.7071067811865476 0 -0.7071067811865475
vn 0.7071067811865476 0 0.7071067811865475
vn -0.7071067811865475 0 0.7071067811865476
vn 0 1 0
vn 0 -1 0
usemtl m_aeb4701a-4af1-91bc-4593-8a4c2c00b54b
f 76/204/51 79/203/51 77/202/51 74/201/51
f 80/208/52 75/207/52 73/206/52 78/205/52
f 79/212/53 80/211/53 78/210/53 77/209/53
f 78/216/54 73/215/54 74/214/54 77/213/54
f 79/220/55 76/219/55 75/218/55 80/217/55
o cube
v 2.2097086912079615 7.4375 -2.2097086912079607
v -2.2097086912079615 7.4375 2.2097086912079607
v 2.2097086912079615 2 -2.2097086912079607
v -2.2097086912079615 2 2.2097086912079607
v -2.2097086912079615 7.4375 2.2097086912079607
v 2.2097086912079615 7.4375 -2.2097086912079607
v -2.2097086912079615 2 2.2097086912079607
v 2.2097086912079615 2 -2.2097086912079607
vt 0.20703125 0.623046875
vt 0.20703125 0.623046875
vt 0.20703125 0.453125
vt 0.20703125 0.453125
vt 0.40234375 0.623046875
vt 0.40234375 0.623046875
vt 0.40234375 0.453125
vt 0.40234375 0.453125
vt 0.20703125 0.623046875
vt 0.40234375 0.623046875
vt 0.40234375 0.453125
vt 0.20703125 0.453125
vt 0.20703125 0.623046875
vt 0.20703125 0.623046875
vt 0.20703125 0.818359375
vt 0.20703125 0.818359375
vt 0.20703125 0.818359375
vt 0.20703125 0.818359375
vt 0.20703125 0.623046875
vt 0.20703125 0.623046875
vn -0.7071067811865477 0 0.7071067811865475
vn 0.7071067811865477 0 -0.7071067811865475
vn 0.7071067811865475 0 0.7071067811865477
vn 0 1 0
vn 0 -1 0
usemtl m_aeb4701a-4af1-91bc-4593-8a4c2c00b54b
f 84/224/56 87/223/56 85/222/56 82/221/56
f 88/228/57 83/227/57 81/226/57 86/225/57
f 87/232/58 88/231/58 86/230/58 85/229/58
f 86/236/59 81/235/59 82/234/59 85/233/59
f 87/240/60 84/239/60 83/238/60 88/237/60
o cube
v 1 7.5625 1
v 1 7.5625 -1
v 1 7.5625 1
v 1 7.5625 -1
v -1 7.5625 -1
v -1 7.5625 1
v -1 7.5625 -1
v -1 7.5625 1
vt 0 0.755859375
vt 0.0625 0.755859375
vt 0.0625 0.755859375
vt 0 0.755859375
vt -0.0625 0.755859375
vt 0 0.755859375
vt 0 0.755859375
vt -0.0625 0.755859375
vt 0.125 0.755859375
vt 0.1875 0.755859375
vt 0.1875 0.755859375
vt 0.125 0.755859375
vt 0.0625 0.755859375
vt 0.125 0.755859375
vt 0.125 0.755859375
vt 0.0625 0.755859375
vt 0.0625 0.755859375
vt 0 0.755859375
vt 0 0.818359375
vt 0.0625 0.818359375
vt 0.125 0.818359375
vt 0.0625 0.818359375
vt 0.0625 0.755859375
vt 0.125 0.755859375
vn 0 0 -1
vn 1 0 0
vn 0 0 1
vn -1 0 0
vn 0 1 0
vn 0 -1 0
usemtl m_aeb4701a-4af1-91bc-4593-8a4c2c00b54b
f 92/244/61 95/243/61 93/242/61 90/241/61
f 91/248/62 92/247/62 90/246/62 89/245/62
f 96/252/63 91/251/63 89/250/63 94/249/63
f 95/256/64 96/255/64 94/254/64 93/253/64
f 94/260/65 89/259/65 90/258/65 93/257/65
f 95/264/66 92/263/66 91/262/66 96/261/66
o cube
v 1 7.6875 1
v 1 7.6875 -1
v 1 7.6875 1
v 1 7.6875 -1
v -1 7.6875 -1
v -1 7.6875 1
v -1 7.6875 -1
v -1 7.6875 1
vt 0 0.755859375
vt 0.0625 0.755859375
vt 0.0625 0.755859375
vt 0 0.755859375
vt -0.0625 0.755859375
vt 0 0.755859375
vt 0 0.755859375
vt -0.0625 0.755859375
vt 0.125 0.755859375
vt 0.1875 0.755859375
vt 0.1875 0.755859375
vt 0.125 0.755859375
vt 0.0625 0.755859375
vt 0.125 0.755859375
vt 0.125 0.755859375
vt 0.0625 0.755859375
vt 0.0625 0.755859375
vt 0 0.755859375
vt 0 0.818359375
vt 0.0625 0.818359375
vt 0.125 0.818359375
vt 0.0625 0.818359375
vt 0.0625 0.755859375
vt 0.125 0.755859375
vn 0 0 -1
vn 1 0 0
vn 0 0 1
vn -1 0 0
vn 0 1 0
vn 0 -1 0
usemtl m_aeb4701a-4af1-91bc-4593-8a4c2c00b54b
f 100/268/67 103/267/67 101/266/67 98/265/67
f 99/272/68 100/271/68 98/270/68 97/269/68
f 104/276/69 99/275/69 97/274/69 102/273/69
f 103/280/70 104/279/70 102/278/70 101/277/70
f 102/284/71 97/283/71 98/282/71 101/281/71
f 103/288/72 100/287/72 99/286/72 104/285/72
o cube
v 1 7.8125 1
v 1 7.8125 -1
v 1 7.8125 1
v 1 7.8125 -1
v -1 7.8125 -1
v -1 7.8125 1
v -1 7.8125 -1
v -1 7.8125 1
vt 0 0.755859375
vt 0.0625 0.755859375
vt 0.0625 0.755859375
vt 0 0.755859375
vt -0.0625 0.755859375
vt 0 0.755859375
vt 0 0.755859375
vt -0.0625 0.755859375
vt 0.125 0.755859375
vt 0.1875 0.755859375
vt 0.1875 0.755859375
vt 0.125 0.755859375
vt 0.0625 0.755859375
vt 0.125 0.755859375
vt 0.125 0.755859375
vt 0.0625 0.755859375
vt 0.0625 0.755859375
vt 0 0.755859375
vt 0 0.818359375
vt 0.0625 0.818359375
vt 0.125 0.818359375
vt 0.0625 0.818359375
vt 0.0625 0.755859375
vt 0.125 0.755859375
vn 0 0 -1
vn 1 0 0
vn 0 0 1
vn -1 0 0
vn 0 1 0
vn 0 -1 0
usemtl m_aeb4701a-4af1-91bc-4593-8a4c2c00b54b
f 108/292/73 111/291/73 109/290/73 106/289/73
f 107/296/74 108/295/74 106/294/74 105/293/74
f 112/300/75 107/299/75 105/298/75 110/297/75
f 111/304/76 112/303/76 110/302/76 109/301/76
f 110/308/77 105/307/77 106/306/77 109/305/77
f 111/312/78 108/311/78 107/310/78 112/309/78